<svg width="12" height="19" viewBox="0 0 12 19" fill="none" xmlns="http://www.w3.org/2000/svg">
<path fill-rule="evenodd" clip-rule="evenodd" d="M11.6406 8.53908L4.15625 18.0156C3.57812 18.75 2.64062 18.2735 2.97656 17.375L5.27344 11.2031H0.765625C0.40625 11.2031 0.140625 10.9531 0.140625 10.6094C0.140625 10.4141 0.21875 10.2422 0.359375 10.0625L7.84375 0.578144C8.42188 -0.156231 9.35156 0.320331 9.02344 1.21877L6.72656 7.39846H11.2344C11.5938 7.39846 11.8594 7.64846 11.8594 7.99221C11.8594 8.17971 11.7812 8.35158 11.6406 8.53908ZM7.35938 9.85939L5.27344 14.3516L9.53125 8.74221H4.64062L6.71875 4.24221L2.46875 9.85939H7.35938Z" fill="white"/>
</svg>
