<svg width="18" height="13" viewBox="0 0 18 13" fill="none" xmlns="http://www.w3.org/2000/svg">
<path fill-rule="evenodd" clip-rule="evenodd" d="M11.2969 12.3438C14.5547 12.3438 17.2812 9.61719 17.2812 6.35938C17.2812 3.09375 14.5547 0.375 11.2891 0.375C10.4922 0.375 9.72656 0.546875 9.03125 0.859375C8.3125 0.546875 7.51562 0.375 6.69531 0.375C3.42969 0.375 0.71875 3.09375 0.71875 6.35938C0.71875 9.61719 3.4375 12.3438 6.70312 12.3438C7.53125 12.3438 8.32031 12.1641 9.03906 11.8516C9.73438 12.1641 10.4922 12.3438 11.2969 12.3438ZM11.2969 10.5547C11.1797 10.5547 11.0625 10.5469 10.9531 10.5391C12.0156 9.45312 12.6875 7.96875 12.6875 6.35938C12.6875 4.74219 12.0156 3.26562 10.9453 2.17969C11.0625 2.16406 11.1719 2.16406 11.2891 2.16406C13.5781 2.16406 15.4922 4.08594 15.4922 6.35938C15.4922 8.63281 13.5781 10.5547 11.2969 10.5547ZM2.50781 6.35938C2.50781 8.63281 4.42969 10.5547 6.70312 10.5547C8.97656 10.5547 10.8984 8.63281 10.8984 6.35938C10.8984 4.08594 8.97656 2.16406 6.69531 2.16406C4.42188 2.16406 2.50781 4.08594 2.50781 6.35938Z" fill="white"/>
</svg>
