<svg width="192" height="72" viewBox="0 0 192 72" xmlns="http://www.w3.org/2000/svg">
<g clip-path="url(#clip0_77_144)">
<path d="M27.6793 48.96V43.2H5.74393C4.22055 43.2 2.75955 43.8028 1.68236 44.8752C0.605162 45.948 0 47.4028 0 48.92V54.76C0 56.2772 0.605162 57.732 1.68236 58.8048C2.75955 59.8772 4.22055 60.48 5.74393 60.48H23.1364V66.24H0.401674V72H23.1766C23.9309 72 24.6778 71.852 25.3747 71.5644C26.0716 71.2772 26.7048 70.856 27.2381 70.3248C27.7715 69.7936 28.1946 69.1628 28.4833 68.4688C28.7719 67.7748 28.9205 67.0312 28.9205 66.28V60.44C28.9205 58.9228 28.3153 57.468 27.2381 56.3952C26.161 55.3228 24.7 54.72 23.1766 54.72H5.7841V48.96H27.6793Z" fill="white"/>
<path d="M33.8408 48.92V66.28C33.8403 67.0308 33.9884 67.7748 34.2766 68.4688C34.5648 69.1628 34.9875 69.7932 35.5206 70.3244C36.0536 70.8556 36.6866 71.2772 37.3832 71.5644C38.0799 71.852 38.8266 72 39.5807 72H57.0375C57.7918 72 58.5385 71.852 59.2354 71.5644C59.9323 71.2772 60.5658 70.856 61.0992 70.3248C61.6326 69.7936 62.0556 69.1628 62.344 68.4688C62.6328 67.7748 62.7814 67.0312 62.7814 66.28V48.92C62.7814 48.1688 62.6328 47.4252 62.344 46.7312C62.0556 46.0372 61.6326 45.4064 61.0992 44.8752C60.5658 44.344 59.9323 43.9228 59.2354 43.6356C58.5385 43.3479 57.7918 43.2 57.0375 43.2H39.5807C38.8266 43.2 38.0799 43.3479 37.3832 43.6356C36.6866 43.9228 36.0536 44.3444 35.5206 44.8756C34.9875 45.4068 34.5648 46.0372 34.2766 46.7312C33.9884 47.4252 33.8403 48.1692 33.8408 48.92ZM56.9772 66.24H39.6249V48.96H56.9772V66.24Z" fill="white"/>
<path d="M95.3652 48.92V72H101.149V62.536H118.092V72H123.876V48.92C123.876 48.1688 123.728 47.4248 123.44 46.7304C123.151 46.0364 122.728 45.4056 122.195 44.874C121.661 44.3428 121.028 43.9216 120.331 43.6344C119.634 43.3472 118.886 43.1996 118.132 43.2H101.109C100.355 43.2 99.6077 43.348 98.9112 43.6356C98.2143 43.9228 97.5809 44.344 97.0474 44.8752C96.514 45.4064 96.0911 46.0372 95.8023 46.7312C95.5139 47.4252 95.3652 48.1688 95.3652 48.92ZM118.092 56.776H101.149V48.96H118.092V56.776Z" fill="white"/>
<path d="M163.08 48.92V72H168.864V62.536H185.814V72H191.598V48.92C191.598 47.4028 190.993 45.948 189.916 44.8752C188.839 43.8028 187.378 43.2 185.854 43.2H168.836C168.08 43.1984 167.332 43.3452 166.634 43.632C165.935 43.9188 165.301 44.34 164.766 44.8712C164.232 45.4024 163.807 46.0336 163.518 46.7284C163.229 47.4232 163.08 48.168 163.08 48.92ZM185.802 56.776H168.876V48.96H185.814L185.802 56.776Z" fill="white"/>
<path d="M152.158 43.2V66.24H149.844L141.554 45.6C141.27 44.892 140.78 44.2848 140.146 43.8568C139.512 43.4288 138.764 43.2 137.999 43.2H132.849C131.834 43.2 130.86 43.6016 130.143 44.3164C129.425 45.0312 129.021 46.0008 129.021 47.012V72H134.806V48.96H137.119L145.406 69.6C145.688 70.308 146.178 70.9156 146.811 71.3436C147.444 71.7712 148.191 72 148.957 72H154.106C155.121 72 156.095 71.5984 156.813 70.8836C157.531 70.1688 157.934 69.1992 157.934 68.188V43.2H152.158Z" fill="white"/>
<path d="M73.6908 66.24V43.2H67.9067V66.28C67.9067 67.0312 68.0554 67.7748 68.3442 68.4688C68.6326 69.1628 69.0559 69.7936 69.5889 70.3248C70.1224 70.856 70.7558 71.2772 71.4527 71.5644C72.1496 71.852 72.8963 72 73.6507 72H91.0431V66.24H73.6908Z" fill="white"/>
<path fill-rule="evenodd" clip-rule="evenodd" d="M81.4191 21.96C81.5211 21.8485 81.6452 21.759 81.7834 21.6971C81.9216 21.6352 82.071 21.6022 82.2225 21.6H107.46C107.566 21.6015 107.67 21.6337 107.759 21.6927C107.848 21.7517 107.918 21.835 107.961 21.9326C108.003 22.0302 108.016 22.138 107.999 22.2429C107.981 22.3478 107.933 22.4454 107.861 22.524L102.511 28.44C102.409 28.5515 102.285 28.641 102.147 28.7029C102.008 28.7648 101.859 28.7978 101.708 28.8H76.4665C76.3596 28.7985 76.2556 28.7663 76.1668 28.7073C76.078 28.6483 76.0082 28.565 75.9656 28.4674C75.923 28.3697 75.9102 28.262 75.9274 28.1571C75.9451 28.0522 75.9929 27.9546 76.0648 27.876L81.4191 21.96ZM107.885 17.056C107.957 17.1346 108.005 17.2322 108.023 17.3371C108.04 17.442 108.027 17.5498 107.985 17.6474C107.942 17.745 107.873 17.8283 107.783 17.8873C107.695 17.9463 107.591 17.9785 107.484 17.98H82.2466C82.0951 17.9778 81.9457 17.9448 81.8075 17.8829C81.6694 17.821 81.5452 17.7315 81.4432 17.62L76.0447 11.744C75.9728 11.6654 75.925 11.5678 75.9073 11.4629C75.8901 11.358 75.9029 11.2502 75.9455 11.1526C75.9881 11.055 76.058 10.9717 76.1467 10.9127C76.2355 10.8537 76.3395 10.8215 76.4464 10.82L101.692 10.8C101.843 10.8022 101.992 10.8352 102.131 10.8971C102.269 10.959 102.393 11.0485 102.495 11.16L107.885 17.056ZM81.4191 0.36C81.5211 0.24851 81.6452 0.159044 81.7834 0.0971264C81.9216 0.0352083 82.071 0.0021525 82.2225 0L107.46 0.02C107.566 0.0214978 107.67 0.05369 107.759 0.112704C107.848 0.171718 107.918 0.255041 107.961 0.35265C108.003 0.45026 108.016 0.558 107.999 0.662908C107.981 0.767816 107.933 0.865428 107.861 0.944L102.511 6.84C102.409 6.95148 102.285 7.04096 102.147 7.10288C102.008 7.1648 101.859 7.19784 101.708 7.2H76.4504C76.3436 7.19852 76.2395 7.16632 76.1508 7.10728C76.062 7.04828 75.9921 6.96496 75.9495 6.86736C75.9069 6.76976 75.8941 6.662 75.9114 6.55708C75.929 6.4522 75.9768 6.35456 76.0487 6.276L81.4191 0.36Z" fill="white"/>
</g>
<defs>
<clipPath id="clip0_77_144">
<rect width="192" height="72" fill="white"/>
</clipPath>
</defs>
</svg>
