<svg width="20" height="19" viewBox="0 0 20 19" fill="none" xmlns="http://www.w3.org/2000/svg">
<path fill-rule="evenodd" clip-rule="evenodd" d="M10.6328 18.0625L18.3203 10.3672C18.9531 9.73438 19.0313 9.34375 19.0313 8.40625V5.44531C19.0313 4.5625 18.8203 4.22656 18.1563 3.5625L16.3672 1.77344C15.7031 1.10938 15.3672 0.898438 14.4844 0.898438H11.5234C10.5859 0.898438 10.2109 0.992188 9.57813 1.625L1.875 9.3125C0.671877 10.5234 0.656252 11.8281 1.88281 13.0469L6.89844 18.0547C8.125 19.2812 9.42188 19.2734 10.6328 18.0625ZM8.02344 16.6562L3.28125 11.9219C2.78125 11.4219 2.79688 10.9219 3.28125 10.4453L10.8516 2.875C11.0078 2.71875 11.1484 2.64062 11.3906 2.64062H14.4219C14.6484 2.64062 14.8047 2.71875 14.9531 2.86719L17.0625 4.97656C17.2109 5.11719 17.2891 5.28125 17.2891 5.50781V8.53906C17.2891 8.79688 17.2188 8.9375 17.0703 9.09375L9.5 16.6641C9.01563 17.1406 8.52344 17.1562 8.02344 16.6562ZM14.6328 6.46094C14.6328 7.11719 14.125 7.63281 13.4688 7.63281C12.8047 7.63281 12.2969 7.11719 12.2969 6.46094C12.2969 5.8125 12.8047 5.29688 13.4688 5.29688C14.125 5.29688 14.6328 5.8125 14.6328 6.46094Z" fill="white"/>
</svg>
