<svg width="24" height="15" viewBox="0 0 24 15" fill="none" xmlns="http://www.w3.org/2000/svg">
<path fill-rule="evenodd" clip-rule="evenodd" d="M16.1172 7.47656C18.0312 7.47656 19.5781 5.80469 19.5781 3.73438C19.5781 1.70312 18.0234 0.0703125 16.1172 0.0703125C14.2188 0.0703125 12.6562 1.71875 12.6562 3.74219C12.6641 5.80469 14.2031 7.47656 16.1172 7.47656ZM7.01562 7.65625C8.67969 7.65625 10.0312 6.17969 10.0312 4.35938C10.0312 2.58594 8.67969 1.14062 7.01562 1.14062C5.35938 1.14062 3.99219 2.60156 4 4.36719C4 6.1875 5.35156 7.65625 7.01562 7.65625ZM14.2188 3.74219C14.2188 5 15.0859 5.96875 16.1172 5.96875C17.1562 5.96875 18.0156 4.98438 18.0156 3.73438C18.0156 2.51562 17.1562 1.57812 16.1172 1.57812C15.0859 1.57812 14.2109 2.52344 14.2188 3.74219ZM7.01562 6.17188C6.1875 6.17188 5.48438 5.375 5.48438 4.36719C5.47656 3.40625 6.1875 2.625 7.01562 2.625C7.85156 2.625 8.55469 3.39062 8.55469 4.35938C8.55469 5.375 7.85156 6.17188 7.01562 6.17188ZM8.07031 13.3672C8.01562 13.9297 8.30469 14.5703 8.77344 14.8516H2.75C1.57812 14.8516 0.992188 14.3359 0.992188 13.3516C0.992188 10.7578 3.67969 8.40625 7.00781 8.40625C8.17188 8.40625 9.42969 8.72656 10.3984 9.29688C9.90625 9.60938 9.55469 9.97656 9.28125 10.4141C8.67188 10.0859 7.79688 9.88281 7.00781 9.88281C4.59375 9.88281 2.57812 11.5078 2.57812 13.1797C2.57812 13.3047 2.63281 13.3672 2.77344 13.3672H8.07031ZM20.9531 14.8438C22.3438 14.8438 23.0234 14.3906 23.0234 13.4219C23.0234 11.1953 20.2656 8.41406 16.1172 8.41406C11.9688 8.41406 9.20312 11.1953 9.20312 13.4219C9.20312 14.3906 9.88281 14.8438 11.2734 14.8438H20.9531ZM10.8984 13.1484C10.8984 13.2812 10.9609 13.3359 11.1328 13.3359H21.1016C21.2656 13.3359 21.3281 13.2812 21.3281 13.1484C21.3281 12.0234 19.4375 9.92188 16.1172 9.92188C12.7891 9.92188 10.8984 12.0234 10.8984 13.1484Z" fill="white"/>
</svg>
